<?xml version="1.0" standalone="no"?>
<!DOCTYPE svg PUBLIC "-//W3C//DTD SVG 20010904//EN"
 "http://www.w3.org/TR/2001/REC-SVG-20010904/DTD/svg10.dtd">
<svg version="1.0" xmlns="http://www.w3.org/2000/svg"
 width="100.000000pt" height="100.000000pt" viewBox="0 0 100.000000 100.000000"
 preserveAspectRatio="xMidYMid meet">

<g transform="translate(0.000000,100.000000) scale(0.100000,-0.100000)"
fill="#000000" stroke="none">
<path d="M666 771 c-10 -11 -25 -16 -40 -14 -16 3 -29 -3 -44 -21 -19 -25 -24
-26 -121 -26 -121 0 -141 -12 -141 -84 0 -35 -4 -45 -20 -49 -29 -8 -29 -77 0
-84 12 -3 19 -11 17 -17 -4 -11 -17 -12 -53 -1 -15 5 -28 0 -40 -13 -11 -11
-35 -29 -54 -39 -67 -38 -48 -84 34 -81 l51 1 -55 6 c-47 5 -55 9 -58 28 -2
17 6 26 35 39 21 10 44 26 51 36 16 22 35 23 52 3 7 -8 16 -12 21 -9 5 3 9
-26 9 -64 0 -50 4 -73 15 -82 21 -17 19 -57 -2 -63 -10 -3 14 -5 52 -5 39 0
62 2 53 5 -11 3 -18 14 -18 29 0 24 1 24 95 24 94 0 95 0 95 -24 0 -22 -5 -25
-42 -29 -24 -2 0 -4 52 -4 52 0 87 1 78 4 -23 6 -24 46 -2 64 13 10 15 30 12
100 -3 77 -1 89 15 93 26 7 24 76 -3 83 -11 3 -20 12 -20 19 0 11 18 14 73 14
77 0 107 15 107 52 0 18 -70 78 -90 78 -7 0 -21 11 -32 25 -23 30 -58 32 -82
6z m72 -3 c7 -7 12 -20 12 -29 0 -13 6 -16 21 -12 13 4 27 0 33 -8 6 -8 20
-19 31 -25 24 -14 31 -40 15 -59 -9 -11 -34 -15 -86 -15 -72 0 -74 1 -74 25 0
36 -33 65 -76 65 -38 0 -42 14 -11 34 12 8 22 7 37 -2 16 -10 20 -10 20 1 0
19 21 37 45 37 12 0 26 -5 33 -12z m-75 -90 l22 -23 -49 -3 c-27 -2 -54 2 -59
7 -14 14 -130 14 -144 0 -5 -5 -32 -9 -59 -7 l-49 3 23 23 c21 21 30 22 157
22 127 0 136 -1 158 -22z m-228 -48 c3 -5 19 -10 36 -10 16 0 29 -6 30 -12 0
-10 2 -10 6 0 2 6 18 12 33 12 16 0 32 5 35 10 3 6 28 10 56 10 l49 0 0 -94
c0 -108 -13 -133 -49 -97 -26 26 -36 26 -61 1 -11 -11 -29 -20 -40 -20 -17 0
-20 7 -22 58 l-2 57 -3 -57 -4 -58 -65 0 c-101 0 -104 3 -104 115 l0 95 49 0
c28 0 53 -4 56 -10z m-125 -96 c0 -21 -4 -33 -10 -29 -17 10 -11 65 7 65 2 0
3 -16 3 -36z m410 1 c0 -13 -4 -27 -10 -30 -6 -4 -10 8 -10 30 0 22 4 34 10
30 6 -3 10 -17 10 -30z m-95 -95 c4 -6 -7 -10 -25 -10 -18 0 -29 4 -25 10 3 6
15 10 25 10 10 0 22 -4 25 -10z m-100 -18 l153 3 7 -48 c10 -76 8 -77 -180
-77 -126 0 -165 3 -174 14 -7 9 -9 33 -5 69 6 52 8 55 26 46 12 -6 80 -9 173
-7z m-127 -154 c-2 -15 -10 -23 -23 -23 -13 0 -21 8 -23 23 -3 18 1 22 23 22
22 0 26 -4 23 -22z m260 0 c-4 -31 -42 -31 -46 0 -3 18 1 22 23 22 22 0 26 -4
23 -22z"/>
<path d="M502 570 c0 -14 2 -19 5 -12 2 6 2 18 0 25 -3 6 -5 1 -5 -13z"/>
<path d="M442 360 c0 -19 2 -27 5 -17 2 9 2 25 0 35 -3 9 -5 1 -5 -18z"/>
<path d="M462 360 c0 -19 2 -27 5 -17 2 9 2 25 0 35 -3 9 -5 1 -5 -18z"/>
<path d="M482 360 c0 -19 2 -27 5 -17 2 9 2 25 0 35 -3 9 -5 1 -5 -18z"/>
<path d="M502 360 c0 -19 2 -27 5 -17 2 9 2 25 0 35 -3 9 -5 1 -5 -18z"/>
<path d="M522 360 c0 -19 2 -27 5 -17 2 9 2 25 0 35 -3 9 -5 1 -5 -18z"/>
<path d="M542 360 c0 -19 2 -27 5 -17 2 9 2 25 0 35 -3 9 -5 1 -5 -18z"/>
<path d="M562 360 c0 -19 2 -27 5 -17 2 9 2 25 0 35 -3 9 -5 1 -5 -18z"/>
<path d="M344 365 c-9 -23 5 -35 42 -35 41 0 47 26 8 40 -34 13 -44 13 -50 -5z
m44 -1 c32 -9 27 -24 -8 -24 -20 0 -30 5 -30 15 0 17 4 18 38 9z"/>
<path d="M613 370 c-13 -5 -23 -17 -23 -25 0 -13 9 -15 38 -13 29 2 37 7 37
23 0 23 -20 28 -52 15z m47 -15 c0 -10 -10 -15 -30 -15 -49 0 -34 24 18 29 6
0 12 -6 12 -14z"/>
<path d="M468 233 c6 -2 18 -2 25 0 6 3 1 5 -13 5 -14 0 -19 -2 -12 -5z"/>
</g>
</svg>
